# xmcd
#
# Track frame offsets:
#	150
#	52473
#	66898
#	96247
#	132490
#	154676
#	170027
#	194712
#	214300
#	256022
#
# Disc length: 3717 seconds
#
# Revision: 1
# Processed by: cddbd v1.5.2PL0 Copyright (c) Steve Scherf et al.
# Submitted via: audiograbber 1.83.01
#
DISCID=a00e830a
DTITLE=Grateful Dead - 73-10-30 Kiel Auditorium, St Louis MO
DYEAR=1900
DGENRE=
TTITLE0=Here Comes Sunshine
TTITLE1=Me and My Uncle
TTITLE2=Ramble On Rose
TTITLE3=Looks Like Rain
TTITLE4=Deal
TTITLE5=Mexicali Blues
TTITLE6=They Love Each Other
TTITLE7=El Paso
TTITLE8=Row Jimmy
TTITLE9=Jack Straw
EXTD=
EXTT0=
EXTT1=
EXTT2=
EXTT3=
EXTT4=
EXTT5=
EXTT6=
EXTT7=
EXTT8=
EXTT9=
PLAYORDER=
